<mxfile host="app.diagrams.net" modified="2023-06-08T02:59:31.954Z" agent="Mozilla/5.0 (Windows NT 10.0; Win64; x64) AppleWebKit/537.36 (KHTML, like Gecko) Chrome/114.0.0.0 Safari/537.36" version="21.2.3" etag="Qg8Y4OB7yX3gG60QXuEt" type="github">
  <diagram name="第 1 页" id="_vOgLA39mmzDY5Eb6gf1">
    <mxGraphModel>
      <root>
        <mxCell id="0" />
        <mxCell id="1" parent="0" />
      </root>
    </mxGraphModel>
  </diagram>
</mxfile>
